<mxfile host="Electron" agent="Mozilla/5.0 (Windows NT 10.0; Win64; x64) AppleWebKit/537.36 (KHTML, like Gecko) draw.io/24.7.5 Chrome/126.0.6478.183 Electron/31.3.0 Safari/537.36" version="24.7.5">
  <diagram name="Page-1" id="csTEz5FO5PTaqLaOLQge">
    <mxGraphModel dx="1434" dy="878" grid="1" gridSize="10" guides="1" tooltips="1" connect="1" arrows="1" fold="1" page="1" pageScale="1" pageWidth="3300" pageHeight="2339" math="0" shadow="0">
      <root>
        <mxCell id="0" />
        <mxCell id="1" parent="0" />
        <mxCell id="vJwI65DWujs8xviBbyIF-53" value="" style="edgeStyle=orthogonalEdgeStyle;rounded=0;orthogonalLoop=1;jettySize=auto;html=1;" parent="1" source="vJwI65DWujs8xviBbyIF-1" target="vJwI65DWujs8xviBbyIF-5" edge="1">
          <mxGeometry relative="1" as="geometry" />
        </mxCell>
        <mxCell id="vJwI65DWujs8xviBbyIF-54" value="" style="edgeStyle=orthogonalEdgeStyle;rounded=0;orthogonalLoop=1;jettySize=auto;html=1;" parent="1" source="vJwI65DWujs8xviBbyIF-1" target="vJwI65DWujs8xviBbyIF-5" edge="1">
          <mxGeometry relative="1" as="geometry" />
        </mxCell>
        <mxCell id="vJwI65DWujs8xviBbyIF-55" value="" style="edgeStyle=orthogonalEdgeStyle;rounded=0;orthogonalLoop=1;jettySize=auto;html=1;" parent="1" source="vJwI65DWujs8xviBbyIF-1" target="vJwI65DWujs8xviBbyIF-5" edge="1">
          <mxGeometry relative="1" as="geometry" />
        </mxCell>
        <mxCell id="vJwI65DWujs8xviBbyIF-1" value="Requester" style="shape=umlActor;verticalLabelPosition=bottom;verticalAlign=top;html=1;outlineConnect=0;" parent="1" vertex="1">
          <mxGeometry x="275" y="15" width="20" height="50" as="geometry" />
        </mxCell>
        <mxCell id="vJwI65DWujs8xviBbyIF-2" value="" style="rounded=0;html=1;jettySize=auto;orthogonalLoop=1;fontSize=11;endArrow=block;endFill=0;endSize=8;strokeWidth=1;shadow=0;labelBackgroundColor=none;edgeStyle=orthogonalEdgeStyle;" parent="1" source="vJwI65DWujs8xviBbyIF-3" target="vJwI65DWujs8xviBbyIF-5" edge="1">
          <mxGeometry relative="1" as="geometry" />
        </mxCell>
        <mxCell id="vJwI65DWujs8xviBbyIF-3" value="Requester submits request for data" style="rounded=1;whiteSpace=wrap;html=1;fontSize=12;glass=0;strokeWidth=1;shadow=0;" parent="1" vertex="1">
          <mxGeometry x="317" y="20" width="120" height="40" as="geometry" />
        </mxCell>
        <mxCell id="vJwI65DWujs8xviBbyIF-4" value="Private" style="edgeStyle=orthogonalEdgeStyle;rounded=0;html=1;jettySize=auto;orthogonalLoop=1;fontSize=11;endArrow=block;endFill=0;endSize=8;strokeWidth=1;shadow=0;labelBackgroundColor=none;entryX=0;entryY=0.5;entryDx=0;entryDy=0;" parent="1" source="vJwI65DWujs8xviBbyIF-5" target="vJwI65DWujs8xviBbyIF-10" edge="1">
          <mxGeometry y="10" relative="1" as="geometry">
            <mxPoint as="offset" />
            <mxPoint x="505" y="160" as="targetPoint" />
          </mxGeometry>
        </mxCell>
        <mxCell id="vJwI65DWujs8xviBbyIF-5" value="Private or&lt;div&gt;Public&amp;nbsp;&lt;/div&gt;&lt;div&gt;Framework&lt;/div&gt;" style="rhombus;whiteSpace=wrap;html=1;shadow=0;fontFamily=Helvetica;fontSize=12;align=center;strokeWidth=1;spacing=6;spacingTop=-4;" parent="1" vertex="1">
          <mxGeometry x="315" y="90" width="122" height="110" as="geometry" />
        </mxCell>
        <mxCell id="vJwI65DWujs8xviBbyIF-6" value="Data Request is processed" style="rounded=1;whiteSpace=wrap;html=1;fontSize=12;glass=0;strokeWidth=1;shadow=0;" parent="1" vertex="1">
          <mxGeometry x="602" y="280" width="130" height="40" as="geometry" />
        </mxCell>
        <mxCell id="vJwI65DWujs8xviBbyIF-8" value="Data Request is processed" style="rounded=1;whiteSpace=wrap;html=1;fontSize=12;glass=0;strokeWidth=1;shadow=0;" parent="1" vertex="1">
          <mxGeometry x="316" y="280" width="120" height="40" as="geometry" />
        </mxCell>
        <mxCell id="vJwI65DWujs8xviBbyIF-9" value="&amp;nbsp; &amp;nbsp; &amp;nbsp; Public" style="edgeStyle=orthogonalEdgeStyle;rounded=0;html=1;jettySize=auto;orthogonalLoop=1;fontSize=11;endArrow=block;endFill=0;endSize=8;strokeWidth=1;shadow=0;labelBackgroundColor=none;exitX=0.5;exitY=1;exitDx=0;exitDy=0;entryX=0.5;entryY=0;entryDx=0;entryDy=0;" parent="1" source="vJwI65DWujs8xviBbyIF-5" target="vJwI65DWujs8xviBbyIF-8" edge="1">
          <mxGeometry y="10" relative="1" as="geometry">
            <mxPoint as="offset" />
            <mxPoint x="395" y="230" as="sourcePoint" />
            <mxPoint x="505" y="230" as="targetPoint" />
          </mxGeometry>
        </mxCell>
        <mxCell id="vJwI65DWujs8xviBbyIF-10" value="Has user&amp;nbsp;&lt;div&gt;access to active matching&amp;nbsp;&lt;/div&gt;&lt;div&gt;dataset?&lt;/div&gt;" style="rhombus;whiteSpace=wrap;html=1;shadow=0;fontFamily=Helvetica;fontSize=12;align=center;strokeWidth=1;spacing=6;spacingTop=-4;" parent="1" vertex="1">
          <mxGeometry x="606" y="90" width="122" height="110" as="geometry" />
        </mxCell>
        <mxCell id="vJwI65DWujs8xviBbyIF-12" value="No&lt;div&gt;&lt;br&gt;&lt;/div&gt;" style="edgeStyle=orthogonalEdgeStyle;rounded=0;html=1;jettySize=auto;orthogonalLoop=1;fontSize=11;endArrow=block;endFill=0;endSize=8;strokeWidth=1;shadow=0;labelBackgroundColor=none;exitX=1;exitY=0.5;exitDx=0;exitDy=0;entryX=0;entryY=0.5;entryDx=0;entryDy=0;" parent="1" target="vJwI65DWujs8xviBbyIF-14" edge="1">
          <mxGeometry y="10" relative="1" as="geometry">
            <mxPoint as="offset" />
            <mxPoint x="729" y="145" as="sourcePoint" />
            <mxPoint x="797" y="160" as="targetPoint" />
          </mxGeometry>
        </mxCell>
        <mxCell id="vJwI65DWujs8xviBbyIF-13" value="Yes" style="edgeStyle=orthogonalEdgeStyle;rounded=0;html=1;jettySize=auto;orthogonalLoop=1;fontSize=11;endArrow=block;endFill=0;endSize=8;strokeWidth=1;shadow=0;labelBackgroundColor=none;exitX=0.5;exitY=1;exitDx=0;exitDy=0;entryX=0.5;entryY=0;entryDx=0;entryDy=0;" parent="1" edge="1">
          <mxGeometry y="10" relative="1" as="geometry">
            <mxPoint as="offset" />
            <mxPoint x="668" y="200" as="sourcePoint" />
            <mxPoint x="668" y="280" as="targetPoint" />
          </mxGeometry>
        </mxCell>
        <mxCell id="vJwI65DWujs8xviBbyIF-14" value="Is there&amp;nbsp;&lt;div&gt;matching&amp;nbsp;&lt;/div&gt;&lt;div&gt;dataset&lt;/div&gt;" style="rhombus;whiteSpace=wrap;html=1;shadow=0;fontFamily=Helvetica;fontSize=12;align=center;strokeWidth=1;spacing=6;spacingTop=-4;" parent="1" vertex="1">
          <mxGeometry x="902" y="90" width="120" height="110" as="geometry" />
        </mxCell>
        <mxCell id="vJwI65DWujs8xviBbyIF-16" value="No" style="edgeStyle=orthogonalEdgeStyle;rounded=0;html=1;jettySize=auto;orthogonalLoop=1;fontSize=11;endArrow=block;endFill=0;endSize=8;strokeWidth=1;shadow=0;labelBackgroundColor=none;exitX=0.5;exitY=1;exitDx=0;exitDy=0;entryX=0.5;entryY=0;entryDx=0;entryDy=0;" parent="1" source="vJwI65DWujs8xviBbyIF-14" target="vJwI65DWujs8xviBbyIF-23" edge="1">
          <mxGeometry y="10" relative="1" as="geometry">
            <mxPoint as="offset" />
            <mxPoint x="772" y="210" as="sourcePoint" />
            <mxPoint x="962" y="260" as="targetPoint" />
            <Array as="points" />
          </mxGeometry>
        </mxCell>
        <mxCell id="vJwI65DWujs8xviBbyIF-17" value="Yes" style="edgeStyle=orthogonalEdgeStyle;rounded=0;html=1;jettySize=auto;orthogonalLoop=1;fontSize=11;endArrow=block;endFill=0;endSize=8;strokeWidth=1;shadow=0;labelBackgroundColor=none;exitX=1;exitY=0.5;exitDx=0;exitDy=0;entryX=0.5;entryY=0;entryDx=0;entryDy=0;" parent="1" source="vJwI65DWujs8xviBbyIF-14" target="vJwI65DWujs8xviBbyIF-26" edge="1">
          <mxGeometry y="10" relative="1" as="geometry">
            <mxPoint as="offset" />
            <mxPoint x="972" y="210" as="sourcePoint" />
            <mxPoint x="1122" y="160" as="targetPoint" />
            <Array as="points">
              <mxPoint x="1156" y="145" />
            </Array>
          </mxGeometry>
        </mxCell>
        <mxCell id="vJwI65DWujs8xviBbyIF-18" value="" style="edgeStyle=orthogonalEdgeStyle;rounded=0;html=1;jettySize=auto;orthogonalLoop=1;fontSize=11;endArrow=block;endFill=0;endSize=8;strokeWidth=1;shadow=0;labelBackgroundColor=none;exitX=0.5;exitY=1;exitDx=0;exitDy=0;entryX=0.5;entryY=0;entryDx=0;entryDy=0;" parent="1" source="vJwI65DWujs8xviBbyIF-8" target="vJwI65DWujs8xviBbyIF-19" edge="1">
          <mxGeometry y="10" relative="1" as="geometry">
            <mxPoint as="offset" />
            <mxPoint x="144" y="340" as="sourcePoint" />
            <mxPoint x="446.5" y="405" as="targetPoint" />
            <Array as="points">
              <mxPoint x="376" y="370" />
              <mxPoint x="667" y="370" />
            </Array>
          </mxGeometry>
        </mxCell>
        <mxCell id="vJwI65DWujs8xviBbyIF-19" value="Is there&amp;nbsp;&lt;div&gt;already&lt;div&gt;&amp;nbsp;an matching request for&amp;nbsp;&lt;/div&gt;&lt;div&gt;the user&lt;/div&gt;&lt;/div&gt;" style="rhombus;whiteSpace=wrap;html=1;shadow=0;fontFamily=Helvetica;fontSize=12;align=center;strokeWidth=1;spacing=6;spacingTop=-4;" parent="1" vertex="1">
          <mxGeometry x="606" y="385" width="122" height="110" as="geometry" />
        </mxCell>
        <mxCell id="vJwI65DWujs8xviBbyIF-20" value="Yes" style="edgeStyle=orthogonalEdgeStyle;rounded=0;html=1;jettySize=auto;orthogonalLoop=1;fontSize=11;endArrow=block;endFill=0;endSize=8;strokeWidth=1;shadow=0;labelBackgroundColor=none;exitX=0.5;exitY=1;exitDx=0;exitDy=0;entryX=0.5;entryY=0;entryDx=0;entryDy=0;" parent="1" edge="1">
          <mxGeometry y="10" relative="1" as="geometry">
            <mxPoint as="offset" />
            <mxPoint x="668" y="495" as="sourcePoint" />
            <mxPoint x="668" y="540" as="targetPoint" />
            <Array as="points" />
          </mxGeometry>
        </mxCell>
        <mxCell id="vJwI65DWujs8xviBbyIF-21" value="No" style="edgeStyle=orthogonalEdgeStyle;rounded=0;html=1;jettySize=auto;orthogonalLoop=1;fontSize=11;endArrow=block;endFill=0;endSize=8;strokeWidth=1;shadow=0;labelBackgroundColor=none;exitX=1;exitY=0.5;exitDx=0;exitDy=0;entryX=0;entryY=0.5;entryDx=0;entryDy=0;" parent="1" target="vJwI65DWujs8xviBbyIF-27" edge="1">
          <mxGeometry y="10" relative="1" as="geometry">
            <mxPoint as="offset" />
            <mxPoint x="729" y="440" as="sourcePoint" />
            <mxPoint x="787" y="440" as="targetPoint" />
            <Array as="points" />
          </mxGeometry>
        </mxCell>
        <mxCell id="vJwI65DWujs8xviBbyIF-23" value="Data Request is processed" style="rounded=1;whiteSpace=wrap;html=1;fontSize=12;glass=0;strokeWidth=1;shadow=0;" parent="1" vertex="1">
          <mxGeometry x="897" y="280" width="130" height="40" as="geometry" />
        </mxCell>
        <mxCell id="vJwI65DWujs8xviBbyIF-24" value="" style="edgeStyle=orthogonalEdgeStyle;rounded=0;html=1;jettySize=auto;orthogonalLoop=1;fontSize=11;endArrow=block;endFill=0;endSize=8;strokeWidth=1;shadow=0;labelBackgroundColor=none;entryX=0.5;entryY=0;entryDx=0;entryDy=0;exitX=0.5;exitY=1;exitDx=0;exitDy=0;" parent="1" source="vJwI65DWujs8xviBbyIF-6" target="vJwI65DWujs8xviBbyIF-19" edge="1">
          <mxGeometry y="10" relative="1" as="geometry">
            <mxPoint as="offset" />
            <mxPoint x="680" y="330" as="sourcePoint" />
            <mxPoint x="668" y="385" as="targetPoint" />
            <Array as="points">
              <mxPoint x="667" y="320" />
              <mxPoint x="667" y="385" />
            </Array>
          </mxGeometry>
        </mxCell>
        <mxCell id="vJwI65DWujs8xviBbyIF-25" value="" style="edgeStyle=orthogonalEdgeStyle;rounded=0;html=1;jettySize=auto;orthogonalLoop=1;fontSize=11;endArrow=block;endFill=0;endSize=8;strokeWidth=1;shadow=0;labelBackgroundColor=none;entryX=0.5;entryY=0;entryDx=0;entryDy=0;exitX=0.5;exitY=1;exitDx=0;exitDy=0;" parent="1" source="vJwI65DWujs8xviBbyIF-23" target="vJwI65DWujs8xviBbyIF-19" edge="1">
          <mxGeometry y="10" relative="1" as="geometry">
            <mxPoint as="offset" />
            <mxPoint x="899" y="330" as="sourcePoint" />
            <mxPoint x="710" y="395" as="targetPoint" />
            <Array as="points">
              <mxPoint x="962" y="370" />
              <mxPoint x="667" y="370" />
            </Array>
          </mxGeometry>
        </mxCell>
        <mxCell id="vJwI65DWujs8xviBbyIF-26" value="Access Request is processed" style="rounded=1;whiteSpace=wrap;html=1;fontSize=12;glass=0;strokeWidth=1;shadow=0;" parent="1" vertex="1">
          <mxGeometry x="1091" y="280" width="130" height="40" as="geometry" />
        </mxCell>
        <mxCell id="vJwI65DWujs8xviBbyIF-27" value="A new data request is created" style="rounded=1;whiteSpace=wrap;html=1;fontSize=12;glass=0;strokeWidth=1;shadow=0;" parent="1" vertex="1">
          <mxGeometry x="897" y="420" width="130" height="40" as="geometry" />
        </mxCell>
        <mxCell id="vJwI65DWujs8xviBbyIF-28" value="A new access request is created" style="rounded=1;whiteSpace=wrap;html=1;fontSize=12;glass=0;strokeWidth=1;shadow=0;" parent="1" vertex="1">
          <mxGeometry x="1091" y="420" width="130" height="40" as="geometry" />
        </mxCell>
        <mxCell id="vJwI65DWujs8xviBbyIF-29" value="" style="edgeStyle=orthogonalEdgeStyle;rounded=0;html=1;jettySize=auto;orthogonalLoop=1;fontSize=11;endArrow=block;endFill=0;endSize=8;strokeWidth=1;shadow=0;labelBackgroundColor=none;exitX=0.5;exitY=1;exitDx=0;exitDy=0;entryX=0.5;entryY=0;entryDx=0;entryDy=0;" parent="1" source="vJwI65DWujs8xviBbyIF-26" target="vJwI65DWujs8xviBbyIF-28" edge="1">
          <mxGeometry y="10" relative="1" as="geometry">
            <mxPoint as="offset" />
            <mxPoint x="1155.5" y="330" as="sourcePoint" />
            <mxPoint x="1155.5" y="410" as="targetPoint" />
            <Array as="points" />
          </mxGeometry>
        </mxCell>
        <mxCell id="vJwI65DWujs8xviBbyIF-30" value="No further request is created" style="rounded=1;whiteSpace=wrap;html=1;fontSize=12;glass=0;strokeWidth=1;shadow=0;" parent="1" vertex="1">
          <mxGeometry x="602" y="540" width="130" height="40" as="geometry" />
        </mxCell>
        <mxCell id="vJwI65DWujs8xviBbyIF-34" value="Company Owner / Contact are notified" style="rounded=1;whiteSpace=wrap;html=1;fontSize=12;glass=0;strokeWidth=1;shadow=0;" parent="1" vertex="1">
          <mxGeometry x="897" y="540" width="130" height="40" as="geometry" />
        </mxCell>
        <mxCell id="vJwI65DWujs8xviBbyIF-35" value="" style="edgeStyle=orthogonalEdgeStyle;rounded=0;html=1;jettySize=auto;orthogonalLoop=1;fontSize=11;endArrow=block;endFill=0;endSize=8;strokeWidth=1;shadow=0;labelBackgroundColor=none;exitX=0.5;exitY=1;exitDx=0;exitDy=0;entryX=0.5;entryY=0;entryDx=0;entryDy=0;" parent="1" source="vJwI65DWujs8xviBbyIF-27" target="vJwI65DWujs8xviBbyIF-34" edge="1">
          <mxGeometry y="10" relative="1" as="geometry">
            <mxPoint as="offset" />
            <mxPoint x="1052" y="480" as="sourcePoint" />
            <mxPoint x="1052" y="580" as="targetPoint" />
            <Array as="points" />
          </mxGeometry>
        </mxCell>
        <mxCell id="vJwI65DWujs8xviBbyIF-36" value="Company Owner / Contact are notified" style="rounded=1;whiteSpace=wrap;html=1;fontSize=12;glass=0;strokeWidth=1;shadow=0;" parent="1" vertex="1">
          <mxGeometry x="1091" y="540" width="130" height="40" as="geometry" />
        </mxCell>
        <mxCell id="vJwI65DWujs8xviBbyIF-38" value="" style="edgeStyle=orthogonalEdgeStyle;rounded=0;html=1;jettySize=auto;orthogonalLoop=1;fontSize=11;endArrow=block;endFill=0;endSize=8;strokeWidth=1;shadow=0;labelBackgroundColor=none;exitX=0.5;exitY=1;exitDx=0;exitDy=0;entryX=0.5;entryY=0;entryDx=0;entryDy=0;" parent="1" source="vJwI65DWujs8xviBbyIF-28" target="vJwI65DWujs8xviBbyIF-36" edge="1">
          <mxGeometry y="10" relative="1" as="geometry">
            <mxPoint as="offset" />
            <mxPoint x="1071" y="470" as="sourcePoint" />
            <mxPoint x="1071" y="550" as="targetPoint" />
            <Array as="points" />
          </mxGeometry>
        </mxCell>
        <mxCell id="vJwI65DWujs8xviBbyIF-39" value="Company Owner fulfills data request" style="rounded=1;whiteSpace=wrap;html=1;fontSize=12;glass=0;strokeWidth=1;shadow=0;" parent="1" vertex="1">
          <mxGeometry x="304" y="847" width="120" height="40" as="geometry" />
        </mxCell>
        <mxCell id="vJwI65DWujs8xviBbyIF-45" value="Data request is set to answered and requester informed" style="rounded=1;whiteSpace=wrap;html=1;fontSize=12;glass=0;strokeWidth=1;shadow=0;" parent="1" vertex="1">
          <mxGeometry x="304" y="1087" width="120" height="40" as="geometry" />
        </mxCell>
        <mxCell id="vJwI65DWujs8xviBbyIF-47" value="Private or&lt;div&gt;Public&amp;nbsp;&lt;/div&gt;&lt;div&gt;Framework&lt;/div&gt;" style="rhombus;whiteSpace=wrap;html=1;shadow=0;fontFamily=Helvetica;fontSize=12;align=center;strokeWidth=1;spacing=6;spacingTop=-4;" parent="1" vertex="1">
          <mxGeometry x="302.5" y="919.5" width="123" height="115" as="geometry" />
        </mxCell>
        <mxCell id="vJwI65DWujs8xviBbyIF-48" value="&amp;nbsp; &amp;nbsp; &amp;nbsp; &amp;nbsp;Public" style="edgeStyle=orthogonalEdgeStyle;rounded=0;html=1;jettySize=auto;orthogonalLoop=1;fontSize=11;endArrow=block;endFill=0;endSize=8;strokeWidth=1;shadow=0;labelBackgroundColor=none;exitX=0.5;exitY=1;exitDx=0;exitDy=0;" parent="1" source="vJwI65DWujs8xviBbyIF-47" target="vJwI65DWujs8xviBbyIF-45" edge="1">
          <mxGeometry y="10" relative="1" as="geometry">
            <mxPoint as="offset" />
            <mxPoint x="454" y="1037" as="sourcePoint" />
            <mxPoint x="454" y="1117" as="targetPoint" />
          </mxGeometry>
        </mxCell>
        <mxCell id="vJwI65DWujs8xviBbyIF-49" value="Data request is set to answered" style="rounded=1;whiteSpace=wrap;html=1;fontSize=12;glass=0;strokeWidth=1;shadow=0;" parent="1" vertex="1">
          <mxGeometry x="484" y="957" width="120" height="40" as="geometry" />
        </mxCell>
        <mxCell id="vJwI65DWujs8xviBbyIF-50" value="Private" style="edgeStyle=orthogonalEdgeStyle;rounded=0;html=1;jettySize=auto;orthogonalLoop=1;fontSize=11;endArrow=block;endFill=0;endSize=8;strokeWidth=1;shadow=0;labelBackgroundColor=none;entryX=0;entryY=0.5;entryDx=0;entryDy=0;exitX=1;exitY=0.5;exitDx=0;exitDy=0;" parent="1" source="vJwI65DWujs8xviBbyIF-47" target="vJwI65DWujs8xviBbyIF-49" edge="1">
          <mxGeometry y="10" relative="1" as="geometry">
            <mxPoint as="offset" />
            <mxPoint x="454" y="917" as="sourcePoint" />
            <mxPoint x="564" y="917" as="targetPoint" />
          </mxGeometry>
        </mxCell>
        <mxCell id="vJwI65DWujs8xviBbyIF-51" value="Access request for this data is created on behalf of requester" style="rounded=1;whiteSpace=wrap;html=1;fontSize=12;glass=0;strokeWidth=1;shadow=0;" parent="1" vertex="1">
          <mxGeometry x="674" y="957" width="120" height="40" as="geometry" />
        </mxCell>
        <mxCell id="vJwI65DWujs8xviBbyIF-52" value="" style="edgeStyle=orthogonalEdgeStyle;rounded=0;html=1;jettySize=auto;orthogonalLoop=1;fontSize=11;endArrow=block;endFill=0;endSize=8;strokeWidth=1;shadow=0;labelBackgroundColor=none;exitX=1;exitY=0.5;exitDx=0;exitDy=0;entryX=0;entryY=0.5;entryDx=0;entryDy=0;" parent="1" source="vJwI65DWujs8xviBbyIF-49" target="vJwI65DWujs8xviBbyIF-51" edge="1">
          <mxGeometry y="10" relative="1" as="geometry">
            <mxPoint as="offset" />
            <mxPoint x="654" y="1017" as="sourcePoint" />
            <mxPoint x="654" y="1097" as="targetPoint" />
            <Array as="points" />
          </mxGeometry>
        </mxCell>
        <mxCell id="6enMCy29NfZkX7dHCmHQ-46" value="" style="edgeStyle=orthogonalEdgeStyle;rounded=0;orthogonalLoop=1;jettySize=auto;html=1;" parent="1" source="vJwI65DWujs8xviBbyIF-56" target="vJwI65DWujs8xviBbyIF-60" edge="1">
          <mxGeometry relative="1" as="geometry" />
        </mxCell>
        <mxCell id="6enMCy29NfZkX7dHCmHQ-47" value="" style="edgeStyle=orthogonalEdgeStyle;rounded=0;orthogonalLoop=1;jettySize=auto;html=1;" parent="1" source="vJwI65DWujs8xviBbyIF-56" target="vJwI65DWujs8xviBbyIF-60" edge="1">
          <mxGeometry relative="1" as="geometry" />
        </mxCell>
        <mxCell id="6enMCy29NfZkX7dHCmHQ-48" value="" style="edgeStyle=orthogonalEdgeStyle;rounded=0;orthogonalLoop=1;jettySize=auto;html=1;" parent="1" source="vJwI65DWujs8xviBbyIF-56" target="vJwI65DWujs8xviBbyIF-60" edge="1">
          <mxGeometry relative="1" as="geometry" />
        </mxCell>
        <mxCell id="vJwI65DWujs8xviBbyIF-56" value="Company&amp;nbsp;&lt;div&gt;Owner&lt;/div&gt;" style="shape=umlActor;verticalLabelPosition=bottom;verticalAlign=top;html=1;outlineConnect=0;" parent="1" vertex="1">
          <mxGeometry x="277" y="1212" width="20" height="50" as="geometry" />
        </mxCell>
        <mxCell id="vJwI65DWujs8xviBbyIF-58" value="Company Owner manages access requests" style="rounded=1;whiteSpace=wrap;html=1;fontSize=12;glass=0;strokeWidth=1;shadow=0;" parent="1" vertex="1">
          <mxGeometry x="307" y="1217" width="120" height="40" as="geometry" />
        </mxCell>
        <mxCell id="vJwI65DWujs8xviBbyIF-60" value="New or existing access request" style="rhombus;whiteSpace=wrap;html=1;shadow=0;fontFamily=Helvetica;fontSize=12;align=center;strokeWidth=1;spacing=6;spacingTop=-4;" parent="1" vertex="1">
          <mxGeometry x="301" y="1283.25" width="132" height="117.5" as="geometry" />
        </mxCell>
        <mxCell id="vJwI65DWujs8xviBbyIF-61" value="" style="edgeStyle=orthogonalEdgeStyle;rounded=0;html=1;jettySize=auto;orthogonalLoop=1;fontSize=11;endArrow=block;endFill=0;endSize=8;strokeWidth=1;shadow=0;labelBackgroundColor=none;exitX=0.5;exitY=1;exitDx=0;exitDy=0;entryX=0.5;entryY=0;entryDx=0;entryDy=0;" parent="1" source="vJwI65DWujs8xviBbyIF-58" target="vJwI65DWujs8xviBbyIF-60" edge="1">
          <mxGeometry y="10" relative="1" as="geometry">
            <mxPoint as="offset" />
            <mxPoint x="467" y="1262" as="sourcePoint" />
            <mxPoint x="467" y="1312" as="targetPoint" />
            <Array as="points" />
          </mxGeometry>
        </mxCell>
        <mxCell id="vJwI65DWujs8xviBbyIF-64" value="New&lt;div&gt;&lt;br&gt;&lt;/div&gt;" style="edgeStyle=orthogonalEdgeStyle;rounded=0;html=1;jettySize=auto;orthogonalLoop=1;fontSize=11;endArrow=block;endFill=0;endSize=8;strokeWidth=1;shadow=0;labelBackgroundColor=none;exitX=1;exitY=0.5;exitDx=0;exitDy=0;entryX=0;entryY=0.5;entryDx=0;entryDy=0;" parent="1" source="vJwI65DWujs8xviBbyIF-60" target="vJwI65DWujs8xviBbyIF-72" edge="1">
          <mxGeometry y="10" relative="1" as="geometry">
            <mxPoint as="offset" />
            <mxPoint x="487" y="1292" as="sourcePoint" />
            <mxPoint x="487" y="1342" as="targetPoint" />
          </mxGeometry>
        </mxCell>
        <mxCell id="vJwI65DWujs8xviBbyIF-65" value="&amp;nbsp; &amp;nbsp; &amp;nbsp; &amp;nbsp; &amp;nbsp;Existing" style="edgeStyle=orthogonalEdgeStyle;rounded=0;html=1;jettySize=auto;orthogonalLoop=1;fontSize=11;endArrow=block;endFill=0;endSize=8;strokeWidth=1;shadow=0;labelBackgroundColor=none;entryX=0.5;entryY=0;entryDx=0;entryDy=0;exitX=0.5;exitY=1;exitDx=0;exitDy=0;" parent="1" source="vJwI65DWujs8xviBbyIF-60" target="vJwI65DWujs8xviBbyIF-66" edge="1">
          <mxGeometry y="10" relative="1" as="geometry">
            <mxPoint as="offset" />
            <mxPoint x="457" y="1422" as="sourcePoint" />
            <mxPoint x="367" y="1442" as="targetPoint" />
          </mxGeometry>
        </mxCell>
        <mxCell id="vJwI65DWujs8xviBbyIF-66" value="Keep (do nothing)&amp;nbsp;&lt;div&gt;or revoke access&lt;/div&gt;" style="rhombus;whiteSpace=wrap;html=1;shadow=0;fontFamily=Helvetica;fontSize=12;align=center;strokeWidth=1;spacing=6;spacingTop=-4;" parent="1" vertex="1">
          <mxGeometry x="296" y="1432" width="142" height="120" as="geometry" />
        </mxCell>
        <mxCell id="vJwI65DWujs8xviBbyIF-67" value="&lt;div&gt;&amp;nbsp; &amp;nbsp; &amp;nbsp; &amp;nbsp; Revoke&lt;/div&gt;" style="edgeStyle=orthogonalEdgeStyle;rounded=0;html=1;jettySize=auto;orthogonalLoop=1;fontSize=11;endArrow=block;endFill=0;endSize=8;strokeWidth=1;shadow=0;labelBackgroundColor=none;exitX=0.5;exitY=1;exitDx=0;exitDy=0;entryX=0.5;entryY=0;entryDx=0;entryDy=0;" parent="1" source="vJwI65DWujs8xviBbyIF-66" target="vJwI65DWujs8xviBbyIF-68" edge="1">
          <mxGeometry y="10" relative="1" as="geometry">
            <mxPoint as="offset" />
            <mxPoint x="467" y="1492" as="sourcePoint" />
            <mxPoint x="517" y="1492" as="targetPoint" />
          </mxGeometry>
        </mxCell>
        <mxCell id="vJwI65DWujs8xviBbyIF-68" value="Community service updates request database" style="rounded=1;whiteSpace=wrap;html=1;fontSize=12;glass=0;strokeWidth=1;shadow=0;" parent="1" vertex="1">
          <mxGeometry x="307" y="1622" width="120" height="40" as="geometry" />
        </mxCell>
        <mxCell id="vJwI65DWujs8xviBbyIF-69" value="Requester has no longer access to data" style="rounded=1;whiteSpace=wrap;html=1;fontSize=12;glass=0;strokeWidth=1;shadow=0;" parent="1" vertex="1">
          <mxGeometry x="487" y="1622" width="120" height="40" as="geometry" />
        </mxCell>
        <mxCell id="vJwI65DWujs8xviBbyIF-70" value="" style="edgeStyle=orthogonalEdgeStyle;rounded=0;html=1;jettySize=auto;orthogonalLoop=1;fontSize=11;endArrow=block;endFill=0;endSize=8;strokeWidth=1;shadow=0;labelBackgroundColor=none;exitX=1;exitY=0.5;exitDx=0;exitDy=0;entryX=0;entryY=0.5;entryDx=0;entryDy=0;" parent="1" source="vJwI65DWujs8xviBbyIF-68" target="vJwI65DWujs8xviBbyIF-69" edge="1">
          <mxGeometry y="10" relative="1" as="geometry">
            <mxPoint as="offset" />
            <mxPoint x="617" y="1442" as="sourcePoint" />
            <mxPoint x="687" y="1442" as="targetPoint" />
          </mxGeometry>
        </mxCell>
        <mxCell id="vJwI65DWujs8xviBbyIF-72" value="Grant or Decline access" style="rhombus;whiteSpace=wrap;html=1;shadow=0;fontFamily=Helvetica;fontSize=12;align=center;strokeWidth=1;spacing=6;spacingTop=-4;" parent="1" vertex="1">
          <mxGeometry x="497" y="1281.38" width="132" height="121.25" as="geometry" />
        </mxCell>
        <mxCell id="vJwI65DWujs8xviBbyIF-74" value="Community service updates request database" style="rounded=1;whiteSpace=wrap;html=1;fontSize=12;glass=0;strokeWidth=1;shadow=0;" parent="1" vertex="1">
          <mxGeometry x="503" y="1462" width="120" height="40" as="geometry" />
        </mxCell>
        <mxCell id="vJwI65DWujs8xviBbyIF-75" value="Community service updates request database" style="rounded=1;whiteSpace=wrap;html=1;fontSize=12;glass=0;strokeWidth=1;shadow=0;" parent="1" vertex="1">
          <mxGeometry x="689" y="1322" width="120" height="40" as="geometry" />
        </mxCell>
        <mxCell id="vJwI65DWujs8xviBbyIF-76" value="&lt;div&gt;Grant&lt;/div&gt;" style="edgeStyle=orthogonalEdgeStyle;rounded=0;html=1;jettySize=auto;orthogonalLoop=1;fontSize=11;endArrow=block;endFill=0;endSize=8;strokeWidth=1;shadow=0;labelBackgroundColor=none;exitX=1;exitY=0.5;exitDx=0;exitDy=0;entryX=0;entryY=0.5;entryDx=0;entryDy=0;" parent="1" source="vJwI65DWujs8xviBbyIF-72" target="vJwI65DWujs8xviBbyIF-75" edge="1">
          <mxGeometry y="10" relative="1" as="geometry">
            <mxPoint as="offset" />
            <mxPoint x="627" y="1381" as="sourcePoint" />
            <mxPoint x="697" y="1381" as="targetPoint" />
          </mxGeometry>
        </mxCell>
        <mxCell id="vJwI65DWujs8xviBbyIF-77" value="" style="edgeStyle=orthogonalEdgeStyle;rounded=0;html=1;jettySize=auto;orthogonalLoop=1;fontSize=11;endArrow=block;endFill=0;endSize=8;strokeWidth=1;shadow=0;labelBackgroundColor=none;exitX=1;exitY=0.5;exitDx=0;exitDy=0;entryX=0;entryY=0.5;entryDx=0;entryDy=0;" parent="1" source="vJwI65DWujs8xviBbyIF-75" target="vJwI65DWujs8xviBbyIF-78" edge="1">
          <mxGeometry y="10" relative="1" as="geometry">
            <mxPoint as="offset" />
            <mxPoint x="817" y="1402" as="sourcePoint" />
            <mxPoint x="857" y="1342" as="targetPoint" />
          </mxGeometry>
        </mxCell>
        <mxCell id="vJwI65DWujs8xviBbyIF-78" value="Requester is informed that access is granted" style="rounded=1;whiteSpace=wrap;html=1;fontSize=12;glass=0;strokeWidth=1;shadow=0;" parent="1" vertex="1">
          <mxGeometry x="865" y="1322.01" width="120" height="40" as="geometry" />
        </mxCell>
        <mxCell id="vJwI65DWujs8xviBbyIF-80" value="&lt;div&gt;&amp;nbsp; &amp;nbsp; &amp;nbsp; &amp;nbsp; Decline&lt;/div&gt;" style="edgeStyle=orthogonalEdgeStyle;rounded=0;html=1;jettySize=auto;orthogonalLoop=1;fontSize=11;endArrow=block;endFill=0;endSize=8;strokeWidth=1;shadow=0;labelBackgroundColor=none;exitX=0.5;exitY=1;exitDx=0;exitDy=0;entryX=0.5;entryY=0;entryDx=0;entryDy=0;" parent="1" source="vJwI65DWujs8xviBbyIF-72" target="vJwI65DWujs8xviBbyIF-74" edge="1">
          <mxGeometry y="10" relative="1" as="geometry">
            <mxPoint as="offset" />
            <mxPoint x="572" y="1422" as="sourcePoint" />
            <mxPoint x="642" y="1422" as="targetPoint" />
          </mxGeometry>
        </mxCell>
        <mxCell id="vJwI65DWujs8xviBbyIF-81" value="Requester has no access to data" style="rounded=1;whiteSpace=wrap;html=1;fontSize=12;glass=0;strokeWidth=1;shadow=0;" parent="1" vertex="1">
          <mxGeometry x="669" y="1462" width="120" height="40" as="geometry" />
        </mxCell>
        <mxCell id="vJwI65DWujs8xviBbyIF-82" value="" style="edgeStyle=orthogonalEdgeStyle;rounded=0;html=1;jettySize=auto;orthogonalLoop=1;fontSize=11;endArrow=block;endFill=0;endSize=8;strokeWidth=1;shadow=0;labelBackgroundColor=none;exitX=1;exitY=0.5;exitDx=0;exitDy=0;entryX=0;entryY=0.5;entryDx=0;entryDy=0;" parent="1" source="vJwI65DWujs8xviBbyIF-74" target="vJwI65DWujs8xviBbyIF-81" edge="1">
          <mxGeometry y="10" relative="1" as="geometry">
            <mxPoint as="offset" />
            <mxPoint x="627" y="1432" as="sourcePoint" />
            <mxPoint x="687" y="1432" as="targetPoint" />
          </mxGeometry>
        </mxCell>
        <mxCell id="vJwI65DWujs8xviBbyIF-83" value="Maybe inform Requester about decision" style="rounded=1;whiteSpace=wrap;html=1;fontSize=12;glass=0;strokeWidth=1;shadow=0;" parent="1" vertex="1">
          <mxGeometry x="837" y="1462" width="120" height="40" as="geometry" />
        </mxCell>
        <mxCell id="vJwI65DWujs8xviBbyIF-84" value="" style="edgeStyle=orthogonalEdgeStyle;rounded=0;html=1;jettySize=auto;orthogonalLoop=1;fontSize=11;endArrow=block;endFill=0;endSize=8;strokeWidth=1;shadow=0;labelBackgroundColor=none;exitX=1;exitY=0.5;exitDx=0;exitDy=0;entryX=0;entryY=0.5;entryDx=0;entryDy=0;" parent="1" source="vJwI65DWujs8xviBbyIF-81" target="vJwI65DWujs8xviBbyIF-83" edge="1">
          <mxGeometry y="10" relative="1" as="geometry">
            <mxPoint as="offset" />
            <mxPoint x="797" y="1532" as="sourcePoint" />
            <mxPoint x="857" y="1532" as="targetPoint" />
          </mxGeometry>
        </mxCell>
        <mxCell id="vJwI65DWujs8xviBbyIF-85" value="Requester" style="shape=umlActor;verticalLabelPosition=bottom;verticalAlign=top;html=1;outlineConnect=0;" parent="1" vertex="1">
          <mxGeometry x="281" y="1765" width="20" height="50" as="geometry" />
        </mxCell>
        <mxCell id="vJwI65DWujs8xviBbyIF-86" value="Requester manages their requests for data" style="rounded=1;whiteSpace=wrap;html=1;fontSize=12;glass=0;strokeWidth=1;shadow=0;" parent="1" vertex="1">
          <mxGeometry x="311" y="1770" width="120" height="40" as="geometry" />
        </mxCell>
        <mxCell id="vJwI65DWujs8xviBbyIF-87" value="Studies delivered data" style="rounded=1;whiteSpace=wrap;html=1;fontSize=12;glass=0;strokeWidth=1;shadow=0;" parent="1" vertex="1">
          <mxGeometry x="501" y="1770" width="120" height="40" as="geometry" />
        </mxCell>
        <mxCell id="vJwI65DWujs8xviBbyIF-88" value="" style="edgeStyle=orthogonalEdgeStyle;rounded=0;html=1;jettySize=auto;orthogonalLoop=1;fontSize=11;endArrow=block;endFill=0;endSize=8;strokeWidth=1;shadow=0;labelBackgroundColor=none;exitX=1;exitY=0.5;exitDx=0;exitDy=0;entryX=0;entryY=0.5;entryDx=0;entryDy=0;" parent="1" source="vJwI65DWujs8xviBbyIF-86" target="vJwI65DWujs8xviBbyIF-87" edge="1">
          <mxGeometry y="10" relative="1" as="geometry">
            <mxPoint as="offset" />
            <mxPoint x="511" y="1835" as="sourcePoint" />
            <mxPoint x="511" y="1885" as="targetPoint" />
            <Array as="points" />
          </mxGeometry>
        </mxCell>
        <mxCell id="vJwI65DWujs8xviBbyIF-89" value="Resolve, Reopen, Withdraw Request" style="rhombus;whiteSpace=wrap;html=1;shadow=0;fontFamily=Helvetica;fontSize=12;align=center;strokeWidth=1;spacing=6;spacingTop=-4;" parent="1" vertex="1">
          <mxGeometry x="491" y="1845" width="140" height="120" as="geometry" />
        </mxCell>
        <mxCell id="vJwI65DWujs8xviBbyIF-90" value="" style="edgeStyle=orthogonalEdgeStyle;rounded=0;html=1;jettySize=auto;orthogonalLoop=1;fontSize=11;endArrow=block;endFill=0;endSize=8;strokeWidth=1;shadow=0;labelBackgroundColor=none;exitX=0.5;exitY=1;exitDx=0;exitDy=0;entryX=0.5;entryY=0;entryDx=0;entryDy=0;" parent="1" source="vJwI65DWujs8xviBbyIF-87" target="vJwI65DWujs8xviBbyIF-89" edge="1">
          <mxGeometry y="10" relative="1" as="geometry">
            <mxPoint as="offset" />
            <mxPoint x="471" y="1935" as="sourcePoint" />
            <mxPoint x="471" y="1990" as="targetPoint" />
            <Array as="points" />
          </mxGeometry>
        </mxCell>
        <mxCell id="vJwI65DWujs8xviBbyIF-92" value="&lt;div&gt;Resolve&lt;/div&gt;" style="edgeStyle=orthogonalEdgeStyle;rounded=0;html=1;jettySize=auto;orthogonalLoop=1;fontSize=11;endArrow=block;endFill=0;endSize=8;strokeWidth=1;shadow=0;labelBackgroundColor=none;exitX=1;exitY=0.5;exitDx=0;exitDy=0;entryX=0;entryY=0.5;entryDx=0;entryDy=0;" parent="1" source="vJwI65DWujs8xviBbyIF-89" target="vJwI65DWujs8xviBbyIF-93" edge="1">
          <mxGeometry y="10" relative="1" as="geometry">
            <mxPoint as="offset" />
            <mxPoint x="780" y="1895" as="sourcePoint" />
            <mxPoint x="701" y="1905" as="targetPoint" />
          </mxGeometry>
        </mxCell>
        <mxCell id="vJwI65DWujs8xviBbyIF-93" value="Data is accepted. Request is closed" style="rounded=1;whiteSpace=wrap;html=1;fontSize=12;glass=0;strokeWidth=1;shadow=0;" parent="1" vertex="1">
          <mxGeometry x="728" y="1885" width="120" height="40" as="geometry" />
        </mxCell>
        <mxCell id="vJwI65DWujs8xviBbyIF-94" value="&lt;div&gt;Withdraw&lt;/div&gt;" style="edgeStyle=orthogonalEdgeStyle;rounded=0;html=1;jettySize=auto;orthogonalLoop=1;fontSize=11;endArrow=block;endFill=0;endSize=8;strokeWidth=1;shadow=0;labelBackgroundColor=none;exitX=0;exitY=0.5;exitDx=0;exitDy=0;entryX=1;entryY=0.5;entryDx=0;entryDy=0;" parent="1" source="vJwI65DWujs8xviBbyIF-89" target="vJwI65DWujs8xviBbyIF-95" edge="1">
          <mxGeometry y="10" relative="1" as="geometry">
            <mxPoint as="offset" />
            <mxPoint x="391" y="1975" as="sourcePoint" />
            <mxPoint x="461" y="1975" as="targetPoint" />
          </mxGeometry>
        </mxCell>
        <mxCell id="vJwI65DWujs8xviBbyIF-95" value="Request is withdrawn" style="rounded=1;whiteSpace=wrap;html=1;fontSize=12;glass=0;strokeWidth=1;shadow=0;" parent="1" vertex="1">
          <mxGeometry x="301" y="1885" width="120" height="40" as="geometry" />
        </mxCell>
        <mxCell id="vJwI65DWujs8xviBbyIF-96" value="&lt;div&gt;Reopen&lt;/div&gt;" style="edgeStyle=orthogonalEdgeStyle;rounded=0;html=1;jettySize=auto;orthogonalLoop=1;fontSize=11;endArrow=block;endFill=0;endSize=8;strokeWidth=1;shadow=0;labelBackgroundColor=none;exitX=0.5;exitY=1;exitDx=0;exitDy=0;entryX=0.5;entryY=0;entryDx=0;entryDy=0;" parent="1" source="vJwI65DWujs8xviBbyIF-89" target="vJwI65DWujs8xviBbyIF-97" edge="1">
          <mxGeometry y="10" relative="1" as="geometry">
            <mxPoint as="offset" />
            <mxPoint x="581" y="1995" as="sourcePoint" />
            <mxPoint x="561" y="2005" as="targetPoint" />
          </mxGeometry>
        </mxCell>
        <mxCell id="vJwI65DWujs8xviBbyIF-97" value="Data request is reopend" style="rounded=1;whiteSpace=wrap;html=1;fontSize=12;glass=0;strokeWidth=1;shadow=0;" parent="1" vertex="1">
          <mxGeometry x="501" y="2015" width="120" height="40" as="geometry" />
        </mxCell>
        <mxCell id="vJwI65DWujs8xviBbyIF-98" value="Company owner is informed" style="rounded=1;whiteSpace=wrap;html=1;fontSize=12;glass=0;strokeWidth=1;shadow=0;" parent="1" vertex="1">
          <mxGeometry x="908" y="1885" width="120" height="40" as="geometry" />
        </mxCell>
        <mxCell id="vJwI65DWujs8xviBbyIF-99" value="" style="edgeStyle=orthogonalEdgeStyle;rounded=0;html=1;jettySize=auto;orthogonalLoop=1;fontSize=11;endArrow=block;endFill=0;endSize=8;strokeWidth=1;shadow=0;labelBackgroundColor=none;exitX=1;exitY=0.5;exitDx=0;exitDy=0;entryX=0;entryY=0.5;entryDx=0;entryDy=0;" parent="1" source="vJwI65DWujs8xviBbyIF-93" target="vJwI65DWujs8xviBbyIF-98" edge="1">
          <mxGeometry y="10" relative="1" as="geometry">
            <mxPoint as="offset" />
            <mxPoint x="868" y="1855" as="sourcePoint" />
            <mxPoint x="938" y="1855" as="targetPoint" />
          </mxGeometry>
        </mxCell>
        <mxCell id="vJwI65DWujs8xviBbyIF-100" value="Company owner is informed" style="rounded=1;whiteSpace=wrap;html=1;fontSize=12;glass=0;strokeWidth=1;shadow=0;" parent="1" vertex="1">
          <mxGeometry x="501" y="2117" width="120" height="40" as="geometry" />
        </mxCell>
        <mxCell id="vJwI65DWujs8xviBbyIF-101" value="" style="edgeStyle=orthogonalEdgeStyle;rounded=0;html=1;jettySize=auto;orthogonalLoop=1;fontSize=11;endArrow=block;endFill=0;endSize=8;strokeWidth=1;shadow=0;labelBackgroundColor=none;exitX=0.5;exitY=1;exitDx=0;exitDy=0;entryX=0.5;entryY=0;entryDx=0;entryDy=0;" parent="1" source="vJwI65DWujs8xviBbyIF-97" target="vJwI65DWujs8xviBbyIF-100" edge="1">
          <mxGeometry y="10" relative="1" as="geometry">
            <mxPoint as="offset" />
            <mxPoint x="621" y="2005" as="sourcePoint" />
            <mxPoint x="681" y="2005" as="targetPoint" />
          </mxGeometry>
        </mxCell>
        <mxCell id="vJwI65DWujs8xviBbyIF-102" value="" style="edgeStyle=orthogonalEdgeStyle;rounded=0;html=1;jettySize=auto;orthogonalLoop=1;fontSize=11;endArrow=block;endFill=0;endSize=8;strokeWidth=1;shadow=0;labelBackgroundColor=none;exitX=1;exitY=0.5;exitDx=0;exitDy=0;entryX=0;entryY=0.5;entryDx=0;entryDy=0;" parent="1" source="vJwI65DWujs8xviBbyIF-69" target="vJwI65DWujs8xviBbyIF-103" edge="1">
          <mxGeometry y="10" relative="1" as="geometry">
            <mxPoint as="offset" />
            <mxPoint x="647" y="1641.5" as="sourcePoint" />
            <mxPoint x="707" y="1641.5" as="targetPoint" />
          </mxGeometry>
        </mxCell>
        <mxCell id="vJwI65DWujs8xviBbyIF-103" value="Maybe inform Requester about decision" style="rounded=1;whiteSpace=wrap;html=1;fontSize=12;glass=0;strokeWidth=1;shadow=0;" parent="1" vertex="1">
          <mxGeometry x="657" y="1622" width="120" height="40" as="geometry" />
        </mxCell>
        <mxCell id="vJwI65DWujs8xviBbyIF-104" value="Company owner is informed about access request" style="rounded=1;whiteSpace=wrap;html=1;fontSize=12;glass=0;strokeWidth=1;shadow=0;" parent="1" vertex="1">
          <mxGeometry x="864" y="957" width="120" height="40" as="geometry" />
        </mxCell>
        <mxCell id="vJwI65DWujs8xviBbyIF-105" value="" style="edgeStyle=orthogonalEdgeStyle;rounded=0;html=1;jettySize=auto;orthogonalLoop=1;fontSize=11;endArrow=block;endFill=0;endSize=8;strokeWidth=1;shadow=0;labelBackgroundColor=none;exitX=1;exitY=0.5;exitDx=0;exitDy=0;" parent="1" source="vJwI65DWujs8xviBbyIF-51" edge="1">
          <mxGeometry y="10" relative="1" as="geometry">
            <mxPoint as="offset" />
            <mxPoint x="824" y="1027" as="sourcePoint" />
            <mxPoint x="874" y="977" as="targetPoint" />
            <Array as="points" />
          </mxGeometry>
        </mxCell>
        <mxCell id="6enMCy29NfZkX7dHCmHQ-3" value="requestStatus:&amp;nbsp;&lt;div&gt;Open&lt;div&gt;accessStatus:&lt;/div&gt;&lt;div&gt;&amp;nbsp;Public&lt;/div&gt;&lt;/div&gt;" style="rounded=0;whiteSpace=wrap;html=1;fillColor=#dae8fc;strokeColor=#6c8ebf;" parent="1" vertex="1">
          <mxGeometry x="440" y="530" width="85" height="60" as="geometry" />
        </mxCell>
        <mxCell id="6enMCy29NfZkX7dHCmHQ-4" value="" style="endArrow=none;html=1;rounded=0;entryX=0;entryY=0.5;entryDx=0;entryDy=0;exitX=1;exitY=0.5;exitDx=0;exitDy=0;" parent="1" source="6enMCy29NfZkX7dHCmHQ-3" target="vJwI65DWujs8xviBbyIF-30" edge="1">
          <mxGeometry width="50" height="50" relative="1" as="geometry">
            <mxPoint x="245" y="410" as="sourcePoint" />
            <mxPoint x="295" y="360" as="targetPoint" />
          </mxGeometry>
        </mxCell>
        <mxCell id="6enMCy29NfZkX7dHCmHQ-6" value="requestStatus:&amp;nbsp;&lt;div&gt;Open&lt;div&gt;accessStatus:&lt;/div&gt;&lt;div&gt;&amp;nbsp;Public&lt;/div&gt;&lt;/div&gt;" style="rounded=0;whiteSpace=wrap;html=1;fillColor=#dae8fc;strokeColor=#6c8ebf;" parent="1" vertex="1">
          <mxGeometry x="780" y="520" width="85" height="60" as="geometry" />
        </mxCell>
        <mxCell id="6enMCy29NfZkX7dHCmHQ-11" value="" style="endArrow=none;html=1;rounded=0;entryX=0;entryY=1;entryDx=0;entryDy=0;exitX=0.5;exitY=0;exitDx=0;exitDy=0;" parent="1" source="6enMCy29NfZkX7dHCmHQ-6" target="vJwI65DWujs8xviBbyIF-27" edge="1">
          <mxGeometry width="50" height="50" relative="1" as="geometry">
            <mxPoint x="570" y="300" as="sourcePoint" />
            <mxPoint x="592" y="299.5" as="targetPoint" />
            <Array as="points" />
          </mxGeometry>
        </mxCell>
        <mxCell id="6enMCy29NfZkX7dHCmHQ-12" value="requestStatus:&amp;nbsp;&lt;div&gt;Answered&lt;br&gt;&lt;div&gt;accessStatus:&lt;/div&gt;&lt;div&gt;&amp;nbsp;Pending&lt;/div&gt;&lt;/div&gt;" style="rounded=0;whiteSpace=wrap;html=1;fillColor=#dae8fc;strokeColor=#6c8ebf;" parent="1" vertex="1">
          <mxGeometry x="1270" y="410" width="85" height="60" as="geometry" />
        </mxCell>
        <mxCell id="6enMCy29NfZkX7dHCmHQ-13" value="" style="endArrow=none;html=1;rounded=0;entryX=0;entryY=0.5;entryDx=0;entryDy=0;exitX=1;exitY=0.5;exitDx=0;exitDy=0;" parent="1" source="vJwI65DWujs8xviBbyIF-28" target="6enMCy29NfZkX7dHCmHQ-12" edge="1">
          <mxGeometry width="50" height="50" relative="1" as="geometry">
            <mxPoint x="1240" y="299.5" as="sourcePoint" />
            <mxPoint x="1272" y="299.5" as="targetPoint" />
            <Array as="points" />
          </mxGeometry>
        </mxCell>
        <mxCell id="6enMCy29NfZkX7dHCmHQ-14" value="requestStatus:&amp;nbsp;&lt;div&gt;Answered&lt;br&gt;&lt;div&gt;accessStatus:&lt;/div&gt;&lt;div&gt;&amp;nbsp;Public&lt;/div&gt;&lt;/div&gt;" style="rounded=0;whiteSpace=wrap;html=1;fillColor=#dae8fc;strokeColor=#6c8ebf;" parent="1" vertex="1">
          <mxGeometry x="174" y="1077" width="85" height="60" as="geometry" />
        </mxCell>
        <mxCell id="6enMCy29NfZkX7dHCmHQ-17" value="" style="endArrow=none;html=1;rounded=0;entryX=0;entryY=0.5;entryDx=0;entryDy=0;" parent="1" target="vJwI65DWujs8xviBbyIF-45" edge="1">
          <mxGeometry width="50" height="50" relative="1" as="geometry">
            <mxPoint x="259" y="1107" as="sourcePoint" />
            <mxPoint x="351" y="1167" as="targetPoint" />
            <Array as="points" />
          </mxGeometry>
        </mxCell>
        <mxCell id="6enMCy29NfZkX7dHCmHQ-18" value="requestStatus:&amp;nbsp;&lt;div&gt;Answered&lt;br&gt;&lt;div&gt;accessStatus:&lt;/div&gt;&lt;div&gt;&amp;nbsp;Pending&lt;/div&gt;&lt;/div&gt;" style="rounded=0;whiteSpace=wrap;html=1;fillColor=#dae8fc;strokeColor=#6c8ebf;" parent="1" vertex="1">
          <mxGeometry x="600" y="1047" width="85" height="60" as="geometry" />
        </mxCell>
        <mxCell id="6enMCy29NfZkX7dHCmHQ-19" value="" style="endArrow=none;html=1;rounded=0;entryX=0.5;entryY=1;entryDx=0;entryDy=0;exitX=0.5;exitY=0;exitDx=0;exitDy=0;" parent="1" source="6enMCy29NfZkX7dHCmHQ-18" target="vJwI65DWujs8xviBbyIF-49" edge="1">
          <mxGeometry width="50" height="50" relative="1" as="geometry">
            <mxPoint x="632" y="1037" as="sourcePoint" />
            <mxPoint x="677" y="1037" as="targetPoint" />
            <Array as="points" />
          </mxGeometry>
        </mxCell>
        <mxCell id="6enMCy29NfZkX7dHCmHQ-21" value="" style="endArrow=none;html=1;rounded=0;entryX=0.5;entryY=1;entryDx=0;entryDy=0;exitX=0.5;exitY=0;exitDx=0;exitDy=0;" parent="1" source="6enMCy29NfZkX7dHCmHQ-18" target="vJwI65DWujs8xviBbyIF-51" edge="1">
          <mxGeometry width="50" height="50" relative="1" as="geometry">
            <mxPoint x="734" y="1047" as="sourcePoint" />
            <mxPoint x="674" y="1017" as="targetPoint" />
            <Array as="points" />
          </mxGeometry>
        </mxCell>
        <mxCell id="6enMCy29NfZkX7dHCmHQ-22" value="requestStatus: Answered&lt;div&gt;&lt;div&gt;accessStatus:&lt;/div&gt;&lt;div&gt;&amp;nbsp;Pending&lt;/div&gt;&lt;/div&gt;" style="rounded=0;whiteSpace=wrap;html=1;fillColor=#dae8fc;strokeColor=#6c8ebf;" parent="1" vertex="1">
          <mxGeometry x="522" y="1197" width="85" height="60" as="geometry" />
        </mxCell>
        <mxCell id="6enMCy29NfZkX7dHCmHQ-23" value="" style="endArrow=none;html=1;rounded=0;exitX=0.5;exitY=0;exitDx=0;exitDy=0;" parent="1" source="vJwI65DWujs8xviBbyIF-72" target="6enMCy29NfZkX7dHCmHQ-22" edge="1">
          <mxGeometry width="50" height="50" relative="1" as="geometry">
            <mxPoint x="633" y="1322" as="sourcePoint" />
            <mxPoint x="633" y="1272" as="targetPoint" />
            <Array as="points" />
          </mxGeometry>
        </mxCell>
        <mxCell id="6enMCy29NfZkX7dHCmHQ-25" value="requestStatus: Answered&lt;div&gt;&lt;/div&gt;&lt;div&gt;&lt;div&gt;accessStatus:&lt;/div&gt;&lt;div&gt;&amp;nbsp;Granted&lt;/div&gt;&lt;/div&gt;" style="rounded=0;whiteSpace=wrap;html=1;fillColor=#dae8fc;strokeColor=#6c8ebf;" parent="1" vertex="1">
          <mxGeometry x="706.5" y="1207" width="85" height="60" as="geometry" />
        </mxCell>
        <mxCell id="6enMCy29NfZkX7dHCmHQ-26" value="" style="endArrow=none;html=1;rounded=0;exitX=0.5;exitY=0;exitDx=0;exitDy=0;entryX=0.5;entryY=1;entryDx=0;entryDy=0;" parent="1" source="vJwI65DWujs8xviBbyIF-75" target="6enMCy29NfZkX7dHCmHQ-25" edge="1">
          <mxGeometry width="50" height="50" relative="1" as="geometry">
            <mxPoint x="573" y="1291" as="sourcePoint" />
            <mxPoint x="574" y="1267" as="targetPoint" />
            <Array as="points" />
          </mxGeometry>
        </mxCell>
        <mxCell id="6enMCy29NfZkX7dHCmHQ-27" value="requestStatus: Answered&lt;div&gt;&lt;/div&gt;&lt;div&gt;&lt;div&gt;accessStatus:&lt;/div&gt;&lt;div&gt;&amp;nbsp;Granted&lt;/div&gt;&lt;/div&gt;" style="rounded=0;whiteSpace=wrap;html=1;fillColor=#dae8fc;strokeColor=#6c8ebf;" parent="1" vertex="1">
          <mxGeometry x="175" y="1462" width="85" height="60" as="geometry" />
        </mxCell>
        <mxCell id="6enMCy29NfZkX7dHCmHQ-28" value="" style="endArrow=none;html=1;rounded=0;exitX=0;exitY=0.5;exitDx=0;exitDy=0;entryX=1;entryY=0.5;entryDx=0;entryDy=0;" parent="1" source="vJwI65DWujs8xviBbyIF-66" target="6enMCy29NfZkX7dHCmHQ-27" edge="1">
          <mxGeometry width="50" height="50" relative="1" as="geometry">
            <mxPoint x="286.5" y="1462" as="sourcePoint" />
            <mxPoint x="286.5" y="1407" as="targetPoint" />
            <Array as="points" />
          </mxGeometry>
        </mxCell>
        <mxCell id="6enMCy29NfZkX7dHCmHQ-29" value="requestStatus: Answered&lt;div&gt;&lt;/div&gt;&lt;div&gt;&lt;div&gt;accessStatus:&lt;/div&gt;&lt;div&gt;&amp;nbsp;Revoked&lt;/div&gt;&lt;/div&gt;" style="rounded=0;whiteSpace=wrap;html=1;fillColor=#dae8fc;strokeColor=#6c8ebf;" parent="1" vertex="1">
          <mxGeometry x="176" y="1612" width="85" height="60" as="geometry" />
        </mxCell>
        <mxCell id="6enMCy29NfZkX7dHCmHQ-30" value="" style="endArrow=none;html=1;rounded=0;exitX=0;exitY=0.5;exitDx=0;exitDy=0;entryX=1;entryY=0.5;entryDx=0;entryDy=0;" parent="1" source="vJwI65DWujs8xviBbyIF-68" target="6enMCy29NfZkX7dHCmHQ-29" edge="1">
          <mxGeometry width="50" height="50" relative="1" as="geometry">
            <mxPoint x="311" y="1582" as="sourcePoint" />
            <mxPoint x="275" y="1582" as="targetPoint" />
            <Array as="points" />
          </mxGeometry>
        </mxCell>
        <mxCell id="6enMCy29NfZkX7dHCmHQ-31" value="requestStatus: Answered&lt;div&gt;&lt;/div&gt;&lt;div&gt;&lt;div&gt;accessStatus:&lt;/div&gt;&lt;div&gt;&amp;nbsp;Declined&lt;/div&gt;&lt;/div&gt;" style="rounded=0;whiteSpace=wrap;html=1;fillColor=#dae8fc;strokeColor=#6c8ebf;" parent="1" vertex="1">
          <mxGeometry x="520" y="1532" width="85" height="60" as="geometry" />
        </mxCell>
        <mxCell id="6enMCy29NfZkX7dHCmHQ-32" value="" style="endArrow=none;html=1;rounded=0;entryX=0.5;entryY=1;entryDx=0;entryDy=0;" parent="1" source="6enMCy29NfZkX7dHCmHQ-31" target="vJwI65DWujs8xviBbyIF-74" edge="1">
          <mxGeometry width="50" height="50" relative="1" as="geometry">
            <mxPoint x="665" y="1531" as="sourcePoint" />
            <mxPoint x="629" y="1531" as="targetPoint" />
            <Array as="points" />
          </mxGeometry>
        </mxCell>
        <mxCell id="6enMCy29NfZkX7dHCmHQ-33" value="requestStatus: Answered&lt;div&gt;&lt;div&gt;accessStatus:&lt;/div&gt;&lt;div&gt;&amp;nbsp;Public/Granted&lt;/div&gt;&lt;div&gt;&lt;/div&gt;&lt;/div&gt;" style="rounded=0;whiteSpace=wrap;html=1;fillColor=#dae8fc;strokeColor=#6c8ebf;" parent="1" vertex="1">
          <mxGeometry x="673" y="1760" width="85" height="60" as="geometry" />
        </mxCell>
        <mxCell id="6enMCy29NfZkX7dHCmHQ-34" value="" style="endArrow=none;html=1;rounded=0;exitX=0;exitY=0.5;exitDx=0;exitDy=0;entryX=1;entryY=0.5;entryDx=0;entryDy=0;" parent="1" source="6enMCy29NfZkX7dHCmHQ-33" target="vJwI65DWujs8xviBbyIF-87" edge="1">
          <mxGeometry width="50" height="50" relative="1" as="geometry">
            <mxPoint x="655" y="1717" as="sourcePoint" />
            <mxPoint x="609" y="1717" as="targetPoint" />
            <Array as="points" />
          </mxGeometry>
        </mxCell>
        <mxCell id="6enMCy29NfZkX7dHCmHQ-35" value="requestStatus: Answered&lt;div&gt;&lt;div&gt;accessStatus:&lt;/div&gt;&lt;div&gt;Public/Granted&lt;br&gt;&lt;/div&gt;&lt;div&gt;&lt;/div&gt;&lt;/div&gt;" style="rounded=0;whiteSpace=wrap;html=1;fillColor=#dae8fc;strokeColor=#6c8ebf;" parent="1" vertex="1">
          <mxGeometry x="318.5" y="1977" width="85" height="60" as="geometry" />
        </mxCell>
        <mxCell id="6enMCy29NfZkX7dHCmHQ-36" value="" style="endArrow=none;html=1;rounded=0;exitX=0.5;exitY=1;exitDx=0;exitDy=0;entryX=0.5;entryY=0;entryDx=0;entryDy=0;" parent="1" source="vJwI65DWujs8xviBbyIF-95" target="6enMCy29NfZkX7dHCmHQ-35" edge="1">
          <mxGeometry width="50" height="50" relative="1" as="geometry">
            <mxPoint x="315" y="1947" as="sourcePoint" />
            <mxPoint x="263" y="1947" as="targetPoint" />
            <Array as="points" />
          </mxGeometry>
        </mxCell>
        <mxCell id="6enMCy29NfZkX7dHCmHQ-37" value="requestStatus: Resolved&lt;div&gt;&lt;div&gt;accessStatus:&lt;/div&gt;&lt;div&gt;Public/Granted&lt;br&gt;&lt;/div&gt;&lt;div&gt;&lt;/div&gt;&lt;/div&gt;" style="rounded=0;whiteSpace=wrap;html=1;fillColor=#dae8fc;strokeColor=#6c8ebf;" parent="1" vertex="1">
          <mxGeometry x="745.5" y="1977" width="85" height="60" as="geometry" />
        </mxCell>
        <mxCell id="6enMCy29NfZkX7dHCmHQ-38" value="" style="endArrow=none;html=1;rounded=0;exitX=0.5;exitY=1;exitDx=0;exitDy=0;entryX=0.5;entryY=0;entryDx=0;entryDy=0;" parent="1" source="vJwI65DWujs8xviBbyIF-93" target="6enMCy29NfZkX7dHCmHQ-37" edge="1">
          <mxGeometry width="50" height="50" relative="1" as="geometry">
            <mxPoint x="908" y="1965" as="sourcePoint" />
            <mxPoint x="908" y="2017" as="targetPoint" />
            <Array as="points" />
          </mxGeometry>
        </mxCell>
        <mxCell id="6enMCy29NfZkX7dHCmHQ-39" value="" style="endArrow=none;html=1;rounded=0;exitX=0;exitY=0.5;exitDx=0;exitDy=0;entryX=1;entryY=0.5;entryDx=0;entryDy=0;" parent="1" source="6enMCy29NfZkX7dHCmHQ-40" target="vJwI65DWujs8xviBbyIF-97" edge="1">
          <mxGeometry width="50" height="50" relative="1" as="geometry">
            <mxPoint x="381" y="1945" as="sourcePoint" />
            <mxPoint x="381" y="1997" as="targetPoint" />
            <Array as="points" />
          </mxGeometry>
        </mxCell>
        <mxCell id="6enMCy29NfZkX7dHCmHQ-40" value="requestStatus: Reopened&lt;div&gt;&lt;div&gt;accessStatus:&lt;/div&gt;&lt;div&gt;&amp;nbsp;&lt;span style=&quot;background-color: initial;&quot;&gt;Public/Granted&lt;/span&gt;&lt;/div&gt;&lt;div&gt;&lt;/div&gt;&lt;/div&gt;" style="rounded=0;whiteSpace=wrap;html=1;fillColor=#dae8fc;strokeColor=#6c8ebf;" parent="1" vertex="1">
          <mxGeometry x="652" y="2005" width="85" height="60" as="geometry" />
        </mxCell>
        <mxCell id="6enMCy29NfZkX7dHCmHQ-51" value="Company&amp;nbsp;&lt;div&gt;Owner&lt;/div&gt;" style="shape=umlActor;verticalLabelPosition=bottom;verticalAlign=top;html=1;outlineConnect=0;" parent="1" vertex="1">
          <mxGeometry x="270" y="837" width="20" height="50" as="geometry" />
        </mxCell>
        <mxCell id="6enMCy29NfZkX7dHCmHQ-52" value="" style="edgeStyle=orthogonalEdgeStyle;rounded=0;html=1;jettySize=auto;orthogonalLoop=1;fontSize=11;endArrow=block;endFill=0;endSize=8;strokeWidth=1;shadow=0;labelBackgroundColor=none;exitX=0.5;exitY=1;exitDx=0;exitDy=0;entryX=0.5;entryY=0;entryDx=0;entryDy=0;" parent="1" source="vJwI65DWujs8xviBbyIF-39" target="vJwI65DWujs8xviBbyIF-47" edge="1">
          <mxGeometry y="10" relative="1" as="geometry">
            <mxPoint as="offset" />
            <mxPoint x="427" y="887" as="sourcePoint" />
            <mxPoint x="427" y="939" as="targetPoint" />
          </mxGeometry>
        </mxCell>
        <mxCell id="Wo6gcryxMIdhPUIzEVz5-1" value="Is there a&amp;nbsp;&lt;div&gt;Company&amp;nbsp;&lt;/div&gt;&lt;div&gt;Owner?&lt;/div&gt;" style="rhombus;whiteSpace=wrap;html=1;shadow=0;fontFamily=Helvetica;fontSize=12;align=center;strokeWidth=1;spacing=6;spacingTop=-4;" vertex="1" parent="1">
          <mxGeometry x="902" y="650" width="120" height="110" as="geometry" />
        </mxCell>
        <mxCell id="Wo6gcryxMIdhPUIzEVz5-3" value="" style="edgeStyle=orthogonalEdgeStyle;rounded=0;html=1;jettySize=auto;orthogonalLoop=1;fontSize=11;endArrow=block;endFill=0;endSize=8;strokeWidth=1;shadow=0;labelBackgroundColor=none;exitX=0.5;exitY=1;exitDx=0;exitDy=0;entryX=0.5;entryY=0;entryDx=0;entryDy=0;" edge="1" parent="1" source="vJwI65DWujs8xviBbyIF-34" target="Wo6gcryxMIdhPUIzEVz5-1">
          <mxGeometry y="10" relative="1" as="geometry">
            <mxPoint as="offset" />
            <mxPoint x="1010" y="600" as="sourcePoint" />
            <mxPoint x="1010" y="680" as="targetPoint" />
            <Array as="points" />
          </mxGeometry>
        </mxCell>
        <mxCell id="Wo6gcryxMIdhPUIzEVz5-4" value="Contacts are notified" style="rounded=1;whiteSpace=wrap;html=1;" vertex="1" parent="1">
          <mxGeometry x="734" y="690" width="120" height="30" as="geometry" />
        </mxCell>
        <mxCell id="Wo6gcryxMIdhPUIzEVz5-5" value="" style="edgeStyle=orthogonalEdgeStyle;rounded=0;html=1;jettySize=auto;orthogonalLoop=1;fontSize=11;endArrow=block;endFill=0;endSize=8;strokeWidth=1;shadow=0;labelBackgroundColor=none;entryX=1;entryY=0.5;entryDx=0;entryDy=0;entryPerimeter=0;exitX=0;exitY=0.5;exitDx=0;exitDy=0;" edge="1" parent="1" source="Wo6gcryxMIdhPUIzEVz5-1" target="Wo6gcryxMIdhPUIzEVz5-4">
          <mxGeometry y="10" relative="1" as="geometry">
            <mxPoint as="offset" />
            <mxPoint x="900" y="700" as="sourcePoint" />
            <mxPoint x="865" y="690" as="targetPoint" />
            <Array as="points" />
          </mxGeometry>
        </mxCell>
        <mxCell id="Wo6gcryxMIdhPUIzEVz5-6" value="Company Owner are notified and optionally Contacts" style="rounded=1;whiteSpace=wrap;html=1;fontSize=12;glass=0;strokeWidth=1;shadow=0;" vertex="1" parent="1">
          <mxGeometry x="1091" y="675" width="130" height="60" as="geometry" />
        </mxCell>
        <mxCell id="Wo6gcryxMIdhPUIzEVz5-7" value="" style="edgeStyle=orthogonalEdgeStyle;rounded=0;html=1;jettySize=auto;orthogonalLoop=1;fontSize=11;endArrow=block;endFill=0;endSize=8;strokeWidth=1;shadow=0;labelBackgroundColor=none;entryX=0;entryY=0.5;entryDx=0;entryDy=0;exitX=1;exitY=0.5;exitDx=0;exitDy=0;" edge="1" parent="1" source="Wo6gcryxMIdhPUIzEVz5-1" target="Wo6gcryxMIdhPUIzEVz5-6">
          <mxGeometry y="10" relative="1" as="geometry">
            <mxPoint as="offset" />
            <mxPoint x="1078" y="760" as="sourcePoint" />
            <mxPoint x="1030" y="760" as="targetPoint" />
            <Array as="points" />
          </mxGeometry>
        </mxCell>
      </root>
    </mxGraphModel>
  </diagram>
</mxfile>
